<svg xmlns="http://www.w3.org/2000/svg" viewBox="0 0 1080 320" role="img" aria-labelledby="title desc">
  <title id="title">Orquestra AI wordmark</title>
  <desc id="desc">Assinatura horizontal do Orquestra AI com simbolo orbital e tipografia geometricamente espaçada.</desc>
  <defs>
    <linearGradient id="orb" x1="34" y1="24" x2="284" y2="300" gradientUnits="userSpaceOnUse">
      <stop offset="0" stop-color="#64E2FF"/>
      <stop offset="0.52" stop-color="#43A8FF"/>
      <stop offset="1" stop-color="#6DFFC6"/>
    </linearGradient>
    <linearGradient id="text" x1="328" y1="92" x2="1002" y2="230" gradientUnits="userSpaceOnUse">
      <stop offset="0" stop-color="#EAF9FF"/>
      <stop offset="0.7" stop-color="#BFEFFF"/>
      <stop offset="1" stop-color="#6DFFC6"/>
    </linearGradient>
  </defs>
  <rect width="1080" height="320" rx="54" fill="#06111D"/>
  <g transform="translate(34 34)">
    <rect width="252" height="252" rx="58" fill="#091927"/>
    <path d="M45 146c20 55 82 84 141 64 57-20 91-75 81-132" fill="none" stroke="url(#orb)" stroke-width="14" stroke-linecap="round"/>
    <path d="M225 53c-36-27-88-31-129-7-39 23-60 67-53 111" fill="none" stroke="url(#orb)" stroke-width="14" stroke-linecap="round" opacity="0.75"/>
    <circle cx="126" cy="126" r="45" fill="#06111D" stroke="url(#orb)" stroke-width="10"/>
    <path d="M98 154V96h21c20 0 34 12 34 29 0 18-14 29-34 29H98Zm15-13h7c11 0 18-6 18-16s-7-16-18-16h-7v32Z" fill="#6DFFC6"/>
    <circle cx="225" cy="53" r="16" fill="#6DFFC6"/>
    <circle cx="45" cy="146" r="14" fill="#64E2FF"/>
  </g>
  <text x="330" y="144" fill="url(#text)" font-family="Avenir Next, Futura, Helvetica, Arial, sans-serif" font-size="82" font-weight="800" letter-spacing="-3">Orquestra</text>
  <text x="333" y="215" fill="#8DB4CF" font-family="Avenir Next, Futura, Helvetica, Arial, sans-serif" font-size="34" font-weight="600" letter-spacing="5">AI CONTROL PLANE</text>
  <path d="M330 246h586" stroke="url(#orb)" stroke-width="4" stroke-linecap="round" opacity="0.72"/>
</svg>
